<?xml version="1.0" encoding="utf-8"?>
<!-- Generator: Adobe Illustrator 23.0.4, SVG Export Plug-In . SVG Version: 6.00 Build 0)  -->
<svg version="1.1" id="Layer_1" xmlns="http://www.w3.org/2000/svg" xmlns:xlink="http://www.w3.org/1999/xlink" x="0px" y="0px"
	 viewBox="0 0 25 25" style="enable-background:new 0 0 25 25;" xml:space="preserve">
<style type="text/css">
	.st0{fill:#00447A;}
</style>
<g>
	<circle class="st0" cx="12.5" cy="11" r="1"/>
	<path class="st0" d="M14.66,24.8c0.1-0.02,0.2-0.03,0.3-0.05c0.36-0.07,0.72-0.17,1.07-0.27c0.04-0.01,0.08-0.02,0.11-0.03
		c0.36-0.11,0.7-0.24,1.05-0.38c0.03-0.01,0.07-0.02,0.1-0.04c0.32-0.13,0.64-0.29,0.95-0.45c0.05-0.03,0.11-0.05,0.16-0.08
		c0.28-0.15,0.56-0.32,0.83-0.5c0.07-0.05,0.15-0.09,0.22-0.14c0.26-0.17,0.5-0.36,0.75-0.56c0.08-0.06,0.16-0.11,0.23-0.17
		c0.31-0.26,0.62-0.53,0.91-0.82s0.56-0.59,0.82-0.91c0.06-0.07,0.11-0.16,0.17-0.23c0.19-0.25,0.38-0.49,0.56-0.75
		c0.05-0.07,0.09-0.15,0.14-0.22c0.17-0.27,0.34-0.55,0.5-0.83c0.03-0.05,0.05-0.1,0.08-0.16c0.16-0.31,0.32-0.63,0.45-0.95
		c0.01-0.03,0.02-0.07,0.04-0.1c0.14-0.34,0.27-0.69,0.38-1.05c0.01-0.04,0.02-0.07,0.03-0.11c0.1-0.35,0.2-0.71,0.27-1.07
		c0.02-0.1,0.03-0.2,0.05-0.3c0.05-0.3,0.11-0.61,0.14-0.91C24.98,13.34,25,12.92,25,12.5s-0.02-0.84-0.06-1.25
		c-0.03-0.31-0.08-0.61-0.14-0.91c-0.02-0.1-0.03-0.2-0.05-0.3c-0.07-0.36-0.17-0.72-0.27-1.07c-0.01-0.04-0.02-0.08-0.03-0.11
		c-0.11-0.36-0.24-0.7-0.38-1.05c-0.01-0.03-0.02-0.07-0.04-0.1c-0.13-0.32-0.29-0.64-0.45-0.95c-0.03-0.05-0.05-0.11-0.08-0.16
		c-0.15-0.28-0.32-0.56-0.5-0.83c-0.05-0.07-0.09-0.15-0.14-0.22c-0.17-0.26-0.36-0.5-0.56-0.75c-0.06-0.08-0.11-0.16-0.17-0.23
		c-0.26-0.31-0.53-0.62-0.82-0.91c-0.29-0.29-0.59-0.56-0.91-0.82c-0.08-0.06-0.16-0.12-0.24-0.18c-0.24-0.19-0.49-0.38-0.74-0.55
		c-0.07-0.05-0.15-0.09-0.22-0.14c-0.27-0.17-0.55-0.34-0.83-0.5c-0.05-0.03-0.11-0.05-0.16-0.08c-0.31-0.16-0.63-0.31-0.95-0.45
		c-0.04-0.01-0.07-0.03-0.11-0.04c-0.34-0.14-0.69-0.27-1.04-0.37c-0.04-0.01-0.07-0.02-0.11-0.03c-0.35-0.1-0.71-0.2-1.07-0.27
		c-0.1-0.02-0.2-0.03-0.3-0.05c-0.3-0.05-0.61-0.11-0.91-0.14C13.34,0.02,12.92,0,12.5,0s-0.84,0.02-1.25,0.06
		c-0.31,0.03-0.61,0.08-0.91,0.14c-0.1,0.02-0.2,0.03-0.3,0.05C9.68,0.32,9.32,0.41,8.97,0.51C8.93,0.52,8.9,0.53,8.86,0.54
		c-0.35,0.11-0.7,0.23-1.04,0.37C7.78,0.93,7.74,0.94,7.71,0.96C7.39,1.09,7.07,1.24,6.76,1.4C6.71,1.43,6.65,1.45,6.6,1.48
		C6.32,1.63,6.05,1.8,5.77,1.98C5.7,2.02,5.62,2.06,5.55,2.11c-0.26,0.17-0.5,0.36-0.74,0.55C4.73,2.72,4.64,2.78,4.57,2.84
		C4.25,3.1,3.95,3.37,3.66,3.66S3.1,4.25,2.84,4.57C2.78,4.64,2.72,4.73,2.66,4.81C2.47,5.05,2.28,5.29,2.11,5.55
		C2.06,5.62,2.02,5.7,1.98,5.77C1.8,6.05,1.63,6.32,1.48,6.6C1.45,6.65,1.43,6.71,1.4,6.76C1.24,7.07,1.09,7.39,0.95,7.71
		c-0.01,0.03-0.02,0.07-0.04,0.1C0.78,8.15,0.65,8.5,0.54,8.86C0.53,8.9,0.52,8.93,0.51,8.97c-0.1,0.35-0.2,0.71-0.27,1.07
		c-0.02,0.1-0.03,0.2-0.05,0.3c-0.05,0.3-0.11,0.61-0.14,0.91C0.02,11.66,0,12.08,0,12.5s0.02,0.84,0.06,1.25
		c0.03,0.31,0.08,0.61,0.14,0.91c0.02,0.1,0.03,0.2,0.05,0.3c0.07,0.36,0.17,0.72,0.27,1.07c0.01,0.04,0.02,0.08,0.03,0.11
		c0.11,0.36,0.24,0.7,0.38,1.05c0.01,0.03,0.02,0.07,0.04,0.1c0.13,0.32,0.29,0.64,0.45,0.95c0.03,0.05,0.05,0.11,0.08,0.16
		c0.15,0.28,0.32,0.56,0.5,0.83c0.05,0.07,0.09,0.15,0.14,0.22c0.17,0.26,0.36,0.5,0.55,0.74c0.06,0.08,0.12,0.16,0.18,0.24
		c0.26,0.31,0.53,0.62,0.82,0.91c0.29,0.29,0.59,0.56,0.91,0.82c0.07,0.06,0.16,0.11,0.23,0.17c0.25,0.19,0.49,0.38,0.75,0.56
		c0.07,0.05,0.15,0.09,0.22,0.14c0.27,0.17,0.55,0.34,0.83,0.5c0.05,0.03,0.1,0.05,0.16,0.08c0.31,0.16,0.63,0.32,0.95,0.45
		c0.03,0.01,0.07,0.02,0.1,0.04c0.34,0.14,0.69,0.27,1.05,0.38c0.04,0.01,0.07,0.02,0.11,0.03c0.35,0.1,0.71,0.2,1.07,0.27
		c0.1,0.02,0.2,0.03,0.3,0.05c0.3,0.05,0.61,0.11,0.91,0.14C11.66,24.98,12.08,25,12.5,25s0.84-0.02,1.25-0.06
		C14.06,24.91,14.36,24.85,14.66,24.8z M12.5,19.71l-0.35-0.35c-1-1-4.65-4.53-4.65-8.35c0-2.76,2.24-5,5-5s5,2.24,5,5
		c0,3.83-3.65,7.35-4.65,8.35L12.5,19.71z"/>
	<path class="st0" d="M12.5,7c-2.22,0-4,1.78-4,4c0,2.94,2.79,5.99,4,7.23c1.21-1.24,4-4.28,4-7.23C16.5,8.78,14.72,7,12.5,7z
		 M12.5,13c-1.1,0-2-0.9-2-2c0-1.1,0.9-2,2-2s2,0.9,2,2C14.5,12.1,13.6,13,12.5,13z"/>
</g>
</svg>
