<?xml version="1.0" encoding="utf-8"?>
<!-- Generator: Adobe Illustrator 23.0.4, SVG Export Plug-In . SVG Version: 6.00 Build 0)  -->
<svg version="1.1" id="Layer_1" xmlns="http://www.w3.org/2000/svg" xmlns:xlink="http://www.w3.org/1999/xlink" x="0px" y="0px"
	 viewBox="0 0 25 25" style="enable-background:new 0 0 25 25;" xml:space="preserve">
<style type="text/css">
	.st0{fill:#00447A;}
</style>
<title>noun_376938_cc</title>
<desc>Created using Figma</desc>
<g id="Canvas" transform="translate(-4909 -2758)">
	<g id="noun_376938_cc">
		<g>
			<g>
				<g id="Group">
					<g id="Vector">
						<g transform="translate(4909 2758)">
							<path id="path0_fill" class="st0" d="M4921.5,2758c-3.32,0-6.49,1.32-8.84,3.66s-3.66,5.52-3.66,8.84s1.32,6.49,3.66,8.84
								s5.52,3.66,8.84,3.66s6.49-1.32,8.84-3.66s3.66-5.52,3.66-8.84s-1.32-6.49-3.66-8.84S4924.82,2758,4921.5,2758L4921.5,2758z
								 M4921.5,2764c2.76,0,5,2.24,5,5c0,3.83-3.65,7.35-4.65,8.35l-0.35,0.35l-0.35-0.35c-1-1-4.65-4.53-4.65-8.35
								C4916.5,2766.24,4918.74,2764,4921.5,2764z M4921.5,2765c-2.22,0-4,1.78-4,4c0,2.94,2.79,5.99,4,7.23
								c1.21-1.24,4-4.28,4-7.23C4925.5,2766.78,4923.72,2765,4921.5,2765z M4921.5,2767c1.1,0,2,0.9,2,2s-0.9,2-2,2s-2-0.9-2-2
								S4920.4,2767,4921.5,2767z M4921.5,2768c-0.56,0-1,0.44-1,1s0.44,1,1,1s1-0.44,1-1S4922.06,2768,4921.5,2768z"/>
						</g>
					</g>
				</g>
			</g>
		</g>
	</g>
</g>
</svg>
