<?xml version="1.0" encoding="utf-8"?>
<!-- Generator: Adobe Illustrator 23.0.4, SVG Export Plug-In . SVG Version: 6.00 Build 0)  -->
<svg version="1.1" id="Layer_1" xmlns="http://www.w3.org/2000/svg" xmlns:xlink="http://www.w3.org/1999/xlink" x="0px" y="0px"
	 viewBox="0 0 25 25" style="enable-background:new 0 0 25 25;" xml:space="preserve">
<style type="text/css">
	.st0{fill:#00447A;}
</style>
<path class="st0" d="M12.5,0c-0.43,0-0.86,0.02-1.28,0.06c-0.53,0.05-1.04,0.15-1.55,0.27C9.19,0.45,8.71,0.59,8.25,0.76
	c-0.45,0.16-0.9,0.35-1.33,0.57C6.66,1.46,6.39,1.6,6.14,1.75C5.67,2.03,5.22,2.34,4.79,2.67C4.68,2.76,4.57,2.84,4.46,2.94
	C3.45,3.78,2.59,4.79,1.89,5.92C1.55,6.46,1.24,7.03,0.98,7.63C0.67,8.38,0.42,9.17,0.25,9.98S0,11.64,0,12.5
	c0,2.87,0.98,5.51,2.61,7.63c0.55,0.71,1.16,1.36,1.85,1.94c0.11,0.09,0.22,0.18,0.33,0.26c0.43,0.34,0.88,0.64,1.35,0.92
	c1.08,0.64,2.27,1.13,3.54,1.42c0.51,0.12,1.02,0.22,1.55,0.27C11.64,24.98,12.07,25,12.5,25C19.4,25,25,19.4,25,12.5
	C25,5.6,19.4,0,12.5,0z M19.44,7.91l-6.94,4.66L5.58,7.91H19.44z M4.99,8.56l4.78,3.22l-4.78,4.81V8.56z M5.57,17.17l4.94-4.89
	l1.75,1.18c0.07,0.05,0.16,0.07,0.24,0.07c0.08,0,0.17-0.02,0.24-0.07l1.71-1.14l5,4.85H5.57z M15.23,11.87l4.79-3.3l0,8.04
	L15.23,11.87z"/>
</svg>
