<?xml version="1.0" encoding="utf-8"?>
<!-- Generator: Adobe Illustrator 23.0.4, SVG Export Plug-In . SVG Version: 6.00 Build 0)  -->
<svg version="1.1" id="Layer_1" xmlns="http://www.w3.org/2000/svg" xmlns:xlink="http://www.w3.org/1999/xlink" x="0px" y="0px"
	 viewBox="0 0 841.89 595.28" style="enable-background:new 0 0 841.89 595.28;" xml:space="preserve">
<style type="text/css">
	.st0{fill:#FFFFFF;stroke:#FFFFFF;stroke-width:6.9401;stroke-linecap:round;stroke-linejoin:round;}
	.st1{fill:#FABB00;}
	.st2{fill:#00447A;}
	.st3{display:none;fill:#00447A;}
	.st4{font-family:'BMWTypeLight-Bold';}
	.st5{font-size:25px;}
</style>
<path class="st0" d="M408.85,295.66c0,0,52.35-22.97,149.53-26.99c78.28-3.24,165.19,15.66,165.19,15.66s-85.89-40.46-173.83-37.25
	C475.79,249.77,408.85,295.66,408.85,295.66z"/>
<path class="st0" d="M411.2,294.7c0,0-73.4,51.07-132.26,51.82c-84.22,1.08-155.47-49.66-155.47-49.66s87.45,32.39,157.63,27.53
	C351.28,319.53,411.2,294.7,411.2,294.7z"/>
<path class="st1" d="M408.85,295.66c0,0,52.35-22.97,149.53-26.99c78.28-3.24,165.19,15.66,165.19,15.66s-85.89-40.46-173.83-37.25
	C475.79,249.77,408.85,295.66,408.85,295.66z"/>
<path class="st1" d="M410.95,294.7c0,0-73.4,51.07-132.26,51.82c-84.22,1.08-155.47-49.66-155.47-49.66s87.45,32.39,157.63,27.53
	C351.03,319.53,410.95,294.7,410.95,294.7z"/>
<g>
	<path class="st0" d="M173.36,310.84c2.86-0.26,4.89-0.82,6.08-1.71c1.19-0.88,2.21-2.59,3.06-5.12l13.87-42.88
		c0.3-0.99,0.56-1.95,0.8-2.89c0.24-0.94,0.36-1.72,0.36-2.34c0-1.61-0.52-2.63-1.54-3.05c-1.03-0.42-3.25-0.76-6.66-1.02v-2.42
		h35.73v2.42c-3.93,0.37-6.57,0.9-7.93,1.6c-1.36,0.69-2.49,2.46-3.41,5.28l-6.16,18.99h26.92l5.34-16.57
		c0.33-1.1,0.6-2.09,0.83-2.97c0.22-0.88,0.33-1.63,0.33-2.26c0-1.69-0.74-2.79-2.2-3.3c-0.96-0.33-2.95-0.58-6-0.77v-2.42h33.53
		v2.42c-2.61,0.3-4.42,0.74-5.45,1.32c-1.58,0.96-2.81,2.81-3.69,5.56l-13.81,42.89l-0.94,3.3c-0.18,0.7-0.29,1.14-0.33,1.32
		c-0.03,0.18-0.05,0.4-0.05,0.66c0,1.61,0.82,2.72,2.47,3.3c0.99,0.33,2.96,0.55,5.9,0.67v2.42h-35.79v-2.42
		c3.93-0.33,6.58-0.85,7.96-1.54c1.38-0.7,2.52-2.46,3.44-5.29l7.15-22.13h-26.87l-6.39,19.71c-0.44,1.47-0.74,2.51-0.88,3.14
		c-0.15,0.63-0.22,1.38-0.22,2.25c0,1.54,0.49,2.52,1.49,2.92c0.99,0.41,3.21,0.72,6.66,0.94v2.42h-33.58V310.84z"/>
	<path class="st0" d="M264.79,280.37c6.83-7.56,13.76-11.34,20.81-11.34c2.86,0,4.97,0.71,6.33,2.14c0.81,0.85,1.52,2.3,2.15,4.35
		l1.92-5.06l12.55-0.72l-7.98,22.35c-1.14,3.2-1.94,5.62-2.42,7.27c-0.99,3.23-1.49,5.53-1.49,6.88c0,0.55,0.14,0.93,0.44,1.16
		c0.3,0.22,0.63,0.33,0.99,0.33c0.66,0,1.3-0.21,1.93-0.63c0.62-0.42,1.32-1.02,2.09-1.79c0.37-0.33,0.99-0.97,1.87-1.92
		c0.88-0.96,1.61-1.76,2.2-2.43l2.37,1.43c-3.05,3.82-5.96,6.8-8.73,8.94c-2.77,2.14-5.57,3.22-8.4,3.22c-1.73,0-3.4-0.55-5.01-1.66
		c-1.62-1.1-2.43-2.7-2.43-4.79c0-0.81,0.48-2.79,1.43-5.95c0.15-0.11,0.01,0.11-0.41,0.66c-0.42,0.55-1.07,1.37-1.96,2.47
		c-1.99,2.53-4.33,4.69-7.02,6.47c-2.7,1.78-5.7,2.67-9,2.67c-2.98,0-5.74-0.95-8.31-2.84c-2.57-1.89-3.85-5.11-3.85-9.66
		C254.88,294.9,258.18,287.71,264.79,280.37z M290.88,275.2c-0.7-1.43-2-2.15-3.91-2.15c-4.08,0-8.26,4.07-12.55,12.22
		c-3.78,7.27-5.67,12.83-5.67,16.68c0,1.5,0.45,2.82,1.35,3.96c0.9,1.14,2.09,1.71,3.55,1.71c3.74,0,7.98-4.2,12.72-12.6
		c3.38-7.09,5.07-12.68,5.07-16.79C291.43,276.98,291.25,275.97,290.88,275.2z"/>
	<path class="st0" d="M322.77,321.42c2.53-2.6,3.8-5.1,3.8-7.48c0-2.16-0.72-6.53-2.15-13.11c-0.91-4.18-1.89-8.29-2.92-12.33
		c-1.88-7.05-3.26-11.22-4.16-12.52c-0.9-1.3-2.65-1.95-5.25-1.95v-2.59c3.49-0.25,7.15-0.68,11-1.29c3.86-0.6,5.58-0.87,5.18-0.8
		l0.77-0.11c0.88,2.24,2.23,6.63,4.04,13.16c1.82,6.54,3.24,12.46,4.26,17.78l0.44,2.25l2.09-3.08c1.72-2.49,3.44-5.49,5.15-8.97
		c1.71-3.48,2.56-5.84,2.56-7.04c0-0.59-0.18-1.15-0.55-1.68c-0.37-0.53-0.97-1.06-1.82-1.57l-0.88-0.49
		c-0.62-0.4-1.21-0.9-1.76-1.49c-0.84-1.02-1.26-2.12-1.26-3.3c0-1.36,0.61-2.62,1.85-3.8c1.23-1.18,2.78-1.76,4.65-1.76
		c1.65,0,3.23,0.52,4.74,1.54c1.5,1.03,2.26,2.7,2.26,5.01c0,3.78-2.11,9.49-6.33,17.12c-3.15,5.65-6.83,11.31-11.01,16.96
		c-5.87,7.89-11.19,13.73-15.94,17.51c-4.75,3.78-9.57,5.67-14.45,5.67c-2.09,0-3.83-0.6-5.2-1.79c-1.37-1.2-2.06-2.55-2.06-4.05
		c0-1.58,0.64-2.84,1.93-3.77c1.29-0.94,2.74-1.41,4.35-1.41c1.69,0,3.6,0.55,5.73,1.66c2.12,1.1,3.56,1.65,4.29,1.65
		C318.01,325.33,320.24,324.03,322.77,321.42z"/>
	<path class="st0" d="M356.68,298.6l2.98,0.16c0.55,4.7,1.96,8,4.24,9.91c2.27,1.91,4.51,2.86,6.71,2.86c1.91,0,3.43-0.51,4.57-1.54
		c1.13-1.02,1.71-2.23,1.71-3.63c0-1.29-0.51-2.69-1.52-4.21c-1.02-1.52-2.19-3-3.55-4.43l-4.18-4.46c-1.84-1.65-3.4-3.59-4.68-5.83
		c-1.28-2.24-1.92-4.48-1.92-6.72c0-3.19,1.41-5.93,4.24-8.23c2.82-2.29,6.66-3.44,11.5-3.44c1.98,0,4.08,0.36,6.28,1.07
		c2.2,0.72,3.65,1.08,4.35,1.08c0.87,0,1.54-0.18,1.98-0.52c0.44-0.35,0.85-0.86,1.21-1.52h3.25l-2.59,14.65l-3.03-0.28
		c-0.7-4.04-1.99-6.94-3.88-8.7c-1.89-1.76-3.88-2.64-5.97-2.64c-2.09,0-3.62,0.52-4.6,1.57c-0.98,1.05-1.46,2.21-1.46,3.49
		c0,1.11,0.35,2.2,1.08,3.28c0.71,1.08,2.1,2.73,4.16,4.93l5.5,6c1.21,1.28,2.29,2.86,3.25,4.71c0.96,1.85,1.43,3.7,1.43,5.53
		c0,3.85-1.64,6.96-4.91,9.3c-3.27,2.35-7.24,3.52-11.94,3.52c-1.98,0-4.1-0.33-6.36-0.99c-2.26-0.66-3.62-0.99-4.1-0.99
		c-0.92,0-1.62,0.2-2.09,0.61c-0.48,0.4-0.87,0.86-1.16,1.38h-2.97L356.68,298.6z"/>
	<path class="st0" d="M420.19,310.84c3.44,0,5.81-0.28,7.1-0.82c2.06-0.88,3.6-2.88,4.62-6.01l16.74-51.25
		c-5.62-0.03-10.43,1.1-14.42,3.42c-4.01,2.31-7.32,5.72-9.97,10.24l-2.92-0.66l4.35-16.35h62.1l-4.07,18.33l-2.97-0.22
		c-0.19-6.2-2.25-10.44-6.17-12.72c-2.13-1.25-5.29-1.92-9.47-2.04l-15.79,48.84l-0.94,3.3c-0.11,0.44-0.18,0.8-0.22,1.07
		c-0.04,0.27-0.06,0.56-0.06,0.85c0,1.65,0.61,2.69,1.82,3.12c1.21,0.42,3.74,0.72,7.6,0.91v2.42h-37.32V310.84z"/>
	<path class="st0" d="M472.27,313.22c3.31-9.1,6-16.93,8.09-23.51c2.27-7.04,3.41-11.23,3.41-12.55c0-1.21-0.46-1.98-1.37-2.31
		c-0.92-0.33-2.5-0.5-4.73-0.5v-2.53c4.69-0.26,8.66-0.59,11.89-0.99c2.09-0.26,5.66-0.79,10.68-1.6l-6.28,16.96l0.5,0.11
		c3.23-5.28,5.82-9.04,7.76-11.29c3.41-3.85,6.7-5.78,9.85-5.78c2.2,0,3.83,0.63,4.87,1.87c1.05,1.25,1.57,2.64,1.57,4.18
		c0,1.84-0.58,3.48-1.74,4.93c-1.16,1.45-2.76,2.17-4.81,2.17c-0.92,0-1.78-0.15-2.56-0.47c-0.79-0.31-1.46-0.78-2.01-1.4l-1.05-1.1
		c-0.19-0.18-0.38-0.34-0.58-0.47c-0.2-0.12-0.47-0.19-0.8-0.19c-1.42,0-3.3,1.65-5.61,4.96c-2.32,3.3-4.26,6.66-5.84,10.07
		c-1.1,2.39-2.46,5.75-4.07,10.11c-1.62,4.35-2.81,7.46-3.58,9.33H472.27z"/>
	<path class="st0" d="M521.71,280.37c6.83-7.56,13.76-11.34,20.81-11.34c2.86,0,4.97,0.71,6.33,2.14c0.81,0.85,1.52,2.3,2.15,4.35
		l1.92-5.06l12.55-0.72l-7.98,22.35c-1.13,3.2-1.95,5.62-2.42,7.27c-0.99,3.23-1.48,5.53-1.48,6.88c0,0.55,0.15,0.93,0.44,1.16
		c0.29,0.22,0.62,0.33,0.99,0.33c0.66,0,1.3-0.21,1.93-0.63c0.62-0.42,1.32-1.02,2.09-1.79c0.36-0.33,0.99-0.97,1.87-1.92
		c0.88-0.96,1.61-1.76,2.2-2.43l2.37,1.43c-3.05,3.82-5.96,6.8-8.73,8.94c-2.77,2.14-5.57,3.22-8.4,3.22c-1.73,0-3.4-0.55-5.01-1.66
		c-1.62-1.1-2.42-2.7-2.42-4.79c0-0.81,0.48-2.79,1.43-5.95c0.15-0.11,0.01,0.11-0.42,0.66c-0.42,0.55-1.07,1.37-1.96,2.47
		c-1.98,2.53-4.32,4.69-7.02,6.47c-2.7,1.78-5.7,2.67-9,2.67c-2.98,0-5.75-0.95-8.31-2.84c-2.57-1.89-3.86-5.11-3.86-9.66
		C511.79,294.9,515.1,287.71,521.71,280.37z M547.8,275.2c-0.7-1.43-2-2.15-3.91-2.15c-4.07,0-8.26,4.07-12.55,12.22
		c-3.78,7.27-5.67,12.83-5.67,16.68c0,1.5,0.44,2.82,1.34,3.96c0.91,1.14,2.09,1.71,3.55,1.71c3.74,0,7.99-4.2,12.72-12.6
		c3.38-7.09,5.07-12.68,5.07-16.79C548.35,276.98,548.17,275.97,547.8,275.2z"/>
	<path class="st0" d="M581.58,314.45h-2.86l0.39-13.05c0.1-3.85,0.08-7.39-0.09-10.62c-0.16-3.23-0.52-6.37-1.07-9.42
		c-0.62-3.34-1.37-5.37-2.23-6.08c-0.86-0.71-2.47-1.07-4.81-1.07v-2.53l3.63-0.5c2.68-0.37,4.87-0.68,6.58-0.93
		c1.71-0.25,4.17-0.66,7.4-1.21c1.28,3.41,2.21,8.94,2.75,16.57c0.29,3.82,0.5,8.91,0.61,15.25c2.82-2.53,5.49-5.17,7.98-7.93
		c4.18-4.55,6.27-7.82,6.27-9.8c0-1.1-0.83-2.41-2.48-3.93c-1.65-1.52-2.48-3.06-2.48-4.6c0-1.65,0.61-2.98,1.84-3.99
		c1.23-1.01,2.69-1.52,4.37-1.52c1.84,0,3.45,0.59,4.85,1.76c1.4,1.18,2.09,2.86,2.09,5.06c0,4.11-3.19,9.86-9.57,17.23
		c-5,5.76-10.63,11.18-16.91,16.24L581.58,314.45z"/>
	<path class="st0" d="M625.98,279.11c6.75-6.72,14.17-10.07,22.24-10.07c3.49,0,6.38,0.73,8.67,2.18c2.29,1.45,3.44,3.51,3.44,6.19
		c0,4.08-2.68,7.91-8.04,11.51c-5.36,3.6-12.32,5.89-20.86,6.88c-0.22,0.99-0.39,1.9-0.5,2.73c-0.11,0.83-0.17,1.51-0.17,2.06
		c0,1.95,0.33,3.49,0.99,4.62c1.18,2.06,3.43,3.09,6.77,3.09c2.71,0,5.4-1.17,8.09-3.52c1.43-1.25,2.97-2.97,4.62-5.17l3.3,1.65
		c-2.83,4-5.49,6.94-7.98,8.81c-3.97,2.97-8.61,4.46-13.93,4.46c-3.96,0-7.7-1.22-11.2-3.66c-3.5-2.44-5.26-6.16-5.26-11.15
		C616.18,292.47,619.45,285.6,625.98,279.11z M649.38,273.3c-0.48-0.75-1.34-1.13-2.59-1.13c-2.64,0-5.24,1.8-7.79,5.39
		c-2.55,3.6-4.83,8.65-6.8,15.14c6.5-1.24,11.11-3.64,13.82-7.18c2.71-3.55,4.08-6.69,4.08-9.44
		C650.1,274.98,649.85,274.05,649.38,273.3z"/>
	<path class="st0" d="M663.6,303.78c0.22-0.84,0.58-2.07,1.1-3.69l13.32-41.12c0.33-1.06,0.57-1.93,0.72-2.59
		c0.15-0.66,0.22-1.21,0.22-1.65c0-1.43-0.55-2.3-1.65-2.61c-1.1-0.31-2.9-0.43-5.39-0.36v-2.53c5.58-0.48,9.35-0.84,11.31-1.07
		c1.97-0.24,6.01-0.83,12.14-1.79l-16.29,49.93c-0.8,2.53-1.3,4.15-1.49,4.84c-0.67,2.28-0.99,3.78-0.99,4.52
		c0,0.66,0.2,1.1,0.6,1.32c0.4,0.22,0.77,0.33,1.1,0.33c1.1,0,2.5-0.82,4.21-2.45c1.71-1.63,3.22-3.37,4.55-5.21l2.47,1.32
		c-3.3,4.3-5.98,7.29-8.04,8.97c-3.41,2.79-7.05,4.19-10.9,4.19c-2.09,0-3.9-0.6-5.42-1.79c-1.53-1.19-2.28-2.76-2.28-4.71
		C662.89,306.79,663.12,305.5,663.6,303.78z"/>
</g>
<g>
	<path class="st2" d="M173.36,310.84c2.86-0.26,4.89-0.82,6.08-1.71c1.19-0.88,2.21-2.59,3.06-5.12l13.87-42.88
		c0.3-0.99,0.56-1.95,0.8-2.89c0.24-0.94,0.36-1.72,0.36-2.34c0-1.61-0.52-2.63-1.54-3.05c-1.03-0.42-3.25-0.76-6.66-1.02v-2.42
		h35.73v2.42c-3.93,0.37-6.57,0.9-7.93,1.6c-1.36,0.69-2.49,2.46-3.41,5.28l-6.16,18.99h26.92l5.34-16.57
		c0.33-1.1,0.6-2.09,0.83-2.97c0.22-0.88,0.33-1.63,0.33-2.26c0-1.69-0.74-2.79-2.2-3.3c-0.96-0.33-2.95-0.58-6-0.77v-2.42h33.53
		v2.42c-2.61,0.3-4.42,0.74-5.45,1.32c-1.58,0.96-2.81,2.81-3.69,5.56l-13.81,42.89l-0.94,3.3c-0.18,0.7-0.29,1.14-0.33,1.32
		c-0.03,0.18-0.05,0.4-0.05,0.66c0,1.61,0.82,2.72,2.47,3.3c0.99,0.33,2.96,0.55,5.9,0.67v2.42h-35.79v-2.42
		c3.93-0.33,6.58-0.85,7.96-1.54c1.38-0.7,2.52-2.46,3.44-5.29l7.15-22.13h-26.87l-6.39,19.71c-0.44,1.47-0.74,2.51-0.88,3.14
		c-0.15,0.63-0.22,1.38-0.22,2.25c0,1.54,0.49,2.52,1.49,2.92c0.99,0.41,3.21,0.72,6.66,0.94v2.42h-33.58V310.84z"/>
	<path class="st2" d="M264.79,280.37c6.83-7.56,13.76-11.34,20.81-11.34c2.86,0,4.97,0.71,6.33,2.14c0.81,0.85,1.52,2.3,2.15,4.35
		l1.92-5.06l12.55-0.72l-7.98,22.35c-1.14,3.2-1.94,5.62-2.42,7.27c-0.99,3.23-1.49,5.53-1.49,6.88c0,0.55,0.14,0.93,0.44,1.16
		c0.3,0.22,0.63,0.33,0.99,0.33c0.66,0,1.3-0.21,1.93-0.63c0.62-0.42,1.32-1.02,2.09-1.79c0.37-0.33,0.99-0.97,1.87-1.92
		c0.88-0.96,1.61-1.76,2.2-2.43l2.37,1.43c-3.05,3.82-5.96,6.8-8.73,8.94c-2.77,2.14-5.57,3.22-8.4,3.22c-1.73,0-3.4-0.55-5.01-1.66
		c-1.62-1.1-2.43-2.7-2.43-4.79c0-0.81,0.48-2.79,1.43-5.95c0.15-0.11,0.01,0.11-0.41,0.66c-0.42,0.55-1.07,1.37-1.96,2.47
		c-1.99,2.53-4.33,4.69-7.02,6.47c-2.7,1.78-5.7,2.67-9,2.67c-2.98,0-5.74-0.95-8.31-2.84c-2.57-1.89-3.85-5.11-3.85-9.66
		C254.88,294.9,258.18,287.71,264.79,280.37z M290.88,275.2c-0.7-1.43-2-2.15-3.91-2.15c-4.08,0-8.26,4.07-12.55,12.22
		c-3.78,7.27-5.67,12.83-5.67,16.68c0,1.5,0.45,2.82,1.35,3.96c0.9,1.14,2.09,1.71,3.55,1.71c3.74,0,7.98-4.2,12.72-12.6
		c3.38-7.09,5.07-12.68,5.07-16.79C291.43,276.98,291.25,275.97,290.88,275.2z"/>
	<path class="st2" d="M322.77,321.42c2.53-2.6,3.8-5.1,3.8-7.48c0-2.16-0.72-6.53-2.15-13.11c-0.91-4.18-1.89-8.29-2.92-12.33
		c-1.88-7.05-3.26-11.22-4.16-12.52c-0.9-1.3-2.65-1.95-5.25-1.95v-2.59c3.49-0.25,7.15-0.68,11-1.29c3.86-0.6,5.58-0.87,5.18-0.8
		l0.77-0.11c0.88,2.24,2.23,6.63,4.04,13.16c1.82,6.54,3.24,12.46,4.26,17.78l0.44,2.25l2.09-3.08c1.72-2.49,3.44-5.49,5.15-8.97
		c1.71-3.48,2.56-5.84,2.56-7.04c0-0.59-0.18-1.15-0.55-1.68c-0.37-0.53-0.97-1.06-1.82-1.57l-0.88-0.49
		c-0.62-0.4-1.21-0.9-1.76-1.49c-0.84-1.02-1.26-2.12-1.26-3.3c0-1.36,0.61-2.62,1.85-3.8c1.23-1.18,2.78-1.76,4.65-1.76
		c1.65,0,3.23,0.52,4.74,1.54c1.5,1.03,2.26,2.7,2.26,5.01c0,3.78-2.11,9.49-6.33,17.12c-3.15,5.65-6.83,11.31-11.01,16.96
		c-5.87,7.89-11.19,13.73-15.94,17.51c-4.75,3.78-9.57,5.67-14.45,5.67c-2.09,0-3.83-0.6-5.2-1.79c-1.37-1.2-2.06-2.55-2.06-4.05
		c0-1.58,0.64-2.84,1.93-3.77c1.29-0.94,2.74-1.41,4.35-1.41c1.69,0,3.6,0.55,5.73,1.66c2.12,1.1,3.56,1.65,4.29,1.65
		C318.01,325.33,320.24,324.03,322.77,321.42z"/>
	<path class="st2" d="M356.68,298.6l2.98,0.16c0.55,4.7,1.96,8,4.24,9.91c2.27,1.91,4.51,2.86,6.71,2.86c1.91,0,3.43-0.51,4.57-1.54
		c1.13-1.02,1.71-2.23,1.71-3.63c0-1.29-0.51-2.69-1.52-4.21c-1.02-1.52-2.19-3-3.55-4.43l-4.18-4.46c-1.84-1.65-3.4-3.59-4.68-5.83
		c-1.28-2.24-1.92-4.48-1.92-6.72c0-3.19,1.41-5.93,4.24-8.23c2.82-2.29,6.66-3.44,11.5-3.44c1.98,0,4.08,0.36,6.28,1.07
		c2.2,0.72,3.65,1.08,4.35,1.08c0.87,0,1.54-0.18,1.98-0.52c0.44-0.35,0.85-0.86,1.21-1.52h3.25l-2.59,14.65l-3.03-0.28
		c-0.7-4.04-1.99-6.94-3.88-8.7c-1.89-1.76-3.88-2.64-5.97-2.64c-2.09,0-3.62,0.52-4.6,1.57c-0.98,1.05-1.46,2.21-1.46,3.49
		c0,1.11,0.35,2.2,1.08,3.28c0.71,1.08,2.1,2.73,4.16,4.93l5.5,6c1.21,1.28,2.29,2.86,3.25,4.71c0.96,1.85,1.43,3.7,1.43,5.53
		c0,3.85-1.64,6.96-4.91,9.3c-3.27,2.35-7.24,3.52-11.94,3.52c-1.98,0-4.1-0.33-6.36-0.99c-2.26-0.66-3.62-0.99-4.1-0.99
		c-0.92,0-1.62,0.2-2.09,0.61c-0.48,0.4-0.87,0.86-1.16,1.38h-2.97L356.68,298.6z"/>
	<path class="st2" d="M420.19,310.84c3.44,0,5.81-0.28,7.1-0.82c2.06-0.88,3.6-2.88,4.62-6.01l16.74-51.25
		c-5.62-0.03-10.43,1.1-14.42,3.42c-4.01,2.31-7.32,5.72-9.97,10.24l-2.92-0.66l4.35-16.35h62.1l-4.07,18.33l-3.05,0.27
		c-0.19-6.2-2.16-10.93-6.08-13.21c-2.13-1.25-5.29-1.92-9.47-2.04l-15.79,48.84l-0.94,3.3c-0.11,0.44-0.18,0.8-0.22,1.07
		c-0.04,0.27-0.06,0.56-0.06,0.85c0,1.65,0.61,2.69,1.82,3.12c1.21,0.42,3.74,0.72,7.6,0.91v2.42h-37.32V310.84z"/>
	<path class="st2" d="M472.27,313.22c3.31-9.1,6-16.93,8.09-23.51c2.27-7.04,3.41-11.23,3.41-12.55c0-1.21-0.46-1.98-1.37-2.31
		c-0.92-0.33-2.5-0.5-4.73-0.5v-2.53c4.69-0.26,8.66-0.59,11.89-0.99c2.09-0.26,5.66-0.79,10.68-1.6l-6.28,16.96l0.5,0.11
		c3.23-5.28,5.82-9.04,7.76-11.29c3.41-3.85,6.7-5.78,9.85-5.78c2.2,0,3.83,0.63,4.87,1.87c1.05,1.25,1.57,2.64,1.57,4.18
		c0,1.84-0.58,3.48-1.74,4.93c-1.16,1.45-2.76,2.17-4.81,2.17c-0.92,0-1.78-0.15-2.56-0.47c-0.79-0.31-1.46-0.78-2.01-1.4l-1.05-1.1
		c-0.19-0.18-0.38-0.34-0.58-0.47c-0.2-0.12-0.47-0.19-0.8-0.19c-1.42,0-3.3,1.65-5.61,4.96c-2.32,3.3-4.26,6.66-5.84,10.07
		c-1.1,2.39-2.46,5.75-4.07,10.11c-1.62,4.35-2.81,7.46-3.58,9.33H472.27z"/>
	<path class="st2" d="M521.71,280.37c6.83-7.56,13.76-11.34,20.81-11.34c2.86,0,4.97,0.71,6.33,2.14c0.81,0.85,1.52,2.3,2.15,4.35
		l1.92-5.06l12.55-0.72l-7.98,22.35c-1.13,3.2-1.95,5.62-2.42,7.27c-0.99,3.23-1.48,5.53-1.48,6.88c0,0.55,0.15,0.93,0.44,1.16
		c0.29,0.22,0.62,0.33,0.99,0.33c0.66,0,1.3-0.21,1.93-0.63c0.62-0.42,1.32-1.02,2.09-1.79c0.36-0.33,0.99-0.97,1.87-1.92
		c0.88-0.96,1.61-1.76,2.2-2.43l2.37,1.43c-3.05,3.82-5.96,6.8-8.73,8.94c-2.77,2.14-5.57,3.22-8.4,3.22c-1.73,0-3.4-0.55-5.01-1.66
		c-1.62-1.1-2.42-2.7-2.42-4.79c0-0.81,0.48-2.79,1.43-5.95c0.15-0.11,0.01,0.11-0.42,0.66c-0.42,0.55-1.07,1.37-1.96,2.47
		c-1.98,2.53-4.32,4.69-7.02,6.47c-2.7,1.78-5.7,2.67-9,2.67c-2.98,0-5.75-0.95-8.31-2.84c-2.57-1.89-3.86-5.11-3.86-9.66
		C511.79,294.9,515.1,287.71,521.71,280.37z M547.8,275.2c-0.7-1.43-2-2.15-3.91-2.15c-4.07,0-8.26,4.07-12.55,12.22
		c-3.78,7.27-5.67,12.83-5.67,16.68c0,1.5,0.44,2.82,1.34,3.96c0.91,1.14,2.09,1.71,3.55,1.71c3.74,0,7.99-4.2,12.72-12.6
		c3.38-7.09,5.07-12.68,5.07-16.79C548.35,276.98,548.17,275.97,547.8,275.2z"/>
	<path class="st2" d="M581.58,314.45h-2.86l0.39-13.05c0.1-3.85,0.08-7.39-0.09-10.62c-0.16-3.23-0.52-6.37-1.07-9.42
		c-0.62-3.34-1.37-5.37-2.23-6.08c-0.86-0.71-2.47-1.07-4.81-1.07v-2.53l3.63-0.5c2.68-0.37,4.87-0.68,6.58-0.93
		c1.71-0.25,4.17-0.66,7.4-1.21c1.28,3.41,2.21,8.94,2.75,16.57c0.29,3.82,0.5,8.91,0.61,15.25c2.82-2.53,5.49-5.17,7.98-7.93
		c4.18-4.55,6.27-7.82,6.27-9.8c0-1.1-0.83-2.41-2.48-3.93c-1.65-1.52-2.48-3.06-2.48-4.6c0-1.65,0.61-2.98,1.84-3.99
		c1.23-1.01,2.69-1.52,4.37-1.52c1.84,0,3.45,0.59,4.85,1.76c1.4,1.18,2.09,2.86,2.09,5.06c0,4.11-3.19,9.86-9.57,17.23
		c-5,5.76-10.63,11.18-16.91,16.24L581.58,314.45z"/>
	<path class="st2" d="M625.98,279.11c6.75-6.72,14.17-10.07,22.24-10.07c3.49,0,6.38,0.73,8.67,2.18c2.29,1.45,3.44,3.51,3.44,6.19
		c0,4.08-2.68,7.91-8.04,11.51c-5.36,3.6-12.32,5.89-20.86,6.88c-0.22,0.99-0.39,1.9-0.5,2.73c-0.11,0.83-0.17,1.51-0.17,2.06
		c0,1.95,0.33,3.49,0.99,4.62c1.18,2.06,3.43,3.09,6.77,3.09c2.71,0,5.4-1.17,8.09-3.52c1.43-1.25,2.97-2.97,4.62-5.17l3.3,1.65
		c-2.83,4-5.49,6.94-7.98,8.81c-3.97,2.97-8.61,4.46-13.93,4.46c-3.96,0-7.7-1.22-11.2-3.66c-3.5-2.44-5.26-6.16-5.26-11.15
		C616.18,292.47,619.45,285.6,625.98,279.11z M649.38,273.3c-0.48-0.75-1.34-1.13-2.59-1.13c-2.64,0-5.24,1.8-7.79,5.39
		c-2.55,3.6-4.83,8.65-6.8,15.14c6.5-1.24,11.11-3.64,13.82-7.18c2.71-3.55,4.08-6.69,4.08-9.44
		C650.1,274.98,649.85,274.05,649.38,273.3z"/>
	<path class="st2" d="M663.6,303.78c0.22-0.84,0.58-2.07,1.1-3.69l13.32-41.12c0.33-1.06,0.57-1.93,0.72-2.59
		c0.15-0.66,0.22-1.21,0.22-1.65c0-1.43-0.55-2.3-1.65-2.61c-1.1-0.31-2.9-0.43-5.39-0.36v-2.53c5.58-0.48,9.35-0.84,11.31-1.07
		c1.97-0.24,6.01-0.83,12.14-1.79l-16.29,49.93c-0.8,2.53-1.3,4.15-1.49,4.84c-0.67,2.28-0.99,3.78-0.99,4.52
		c0,0.66,0.2,1.1,0.6,1.32c0.4,0.22,0.77,0.33,1.1,0.33c1.1,0,2.5-0.82,4.21-2.45c1.71-1.63,3.22-3.37,4.55-5.21l2.47,1.32
		c-3.3,4.3-5.98,7.29-8.04,8.97c-3.41,2.79-7.05,4.19-10.9,4.19c-2.09,0-3.9-0.6-5.42-1.79c-1.53-1.19-2.28-2.76-2.28-4.71
		C662.89,306.79,663.12,305.5,663.6,303.78z"/>
</g>
<text transform="matrix(1 0 0 1 381.2031 346.0322)" class="st3 st4 st5">Independence Group</text>
<text transform="matrix(1 0 0 1 524.4282 346.0322)" class="st3 st4 st5">transport</text>
<text transform="matrix(1 0 0 1 418.5034 346.0322)" class="st3 st4 st5">foreign exchange</text>
<text transform="matrix(1 0 0 1 529.0532 346.0322)" class="st3 st4 st5">transfers</text>
<text transform="matrix(1 0 0 1 481.9526 346.0322)" class="st3 st4 st5">homeworking</text>
<text transform="matrix(1 0 0 1 577.0273 346.0322)" class="st3 st4 st5">flights</text>
<text transform="matrix(1 0 0 1 453.1538 346.0322)" class="st3 st4 st5">tour operating</text>
</svg>
