<?xml version="1.0" encoding="utf-8"?>
<!-- Generator: Adobe Illustrator 23.0.4, SVG Export Plug-In . SVG Version: 6.00 Build 0)  -->
<svg version="1.1" id="Layer_1" xmlns="http://www.w3.org/2000/svg" xmlns:xlink="http://www.w3.org/1999/xlink" x="0px" y="0px"
	 viewBox="0 0 25 25" style="enable-background:new 0 0 25 25;" xml:space="preserve">
<style type="text/css">
	.st0{fill-rule:evenodd;clip-rule:evenodd;fill:#00447A;}
	.st1{clip-path:url(#SVGID_2_);}
	.st2{clip-path:url(#SVGID_4_);fill:#FFFFFF;}
</style>
<circle class="st0" cx="12.5" cy="12.5" r="12.5"/>
<g>
	<g>
		<defs>
			<rect id="SVGID_1_" x="4.04" y="4.04" width="16.92" height="16.92"/>
		</defs>
		<clipPath id="SVGID_2_">
			<use xlink:href="#SVGID_1_"  style="overflow:visible;"/>
		</clipPath>
		<g class="st1">
			<defs>
				<rect id="SVGID_3_" x="4.04" y="4.04" width="16.92" height="16.92"/>
			</defs>
			<clipPath id="SVGID_4_">
				<use xlink:href="#SVGID_3_"  style="overflow:visible;"/>
			</clipPath>
			<path class="st2" d="M12.5,5.67c2.22,0,2.49,0.01,3.36,0.05c0.81,0.04,1.25,0.17,1.55,0.29c0.39,0.15,0.67,0.33,0.96,0.62
				c0.29,0.29,0.47,0.57,0.62,0.96c0.11,0.29,0.25,0.73,0.29,1.55c0.04,0.88,0.05,1.14,0.05,3.36c0,2.22-0.01,2.49-0.05,3.36
				c-0.04,0.81-0.17,1.25-0.29,1.55c-0.15,0.39-0.33,0.67-0.62,0.96c-0.29,0.29-0.57,0.47-0.96,0.62c-0.29,0.11-0.73,0.25-1.55,0.29
				c-0.88,0.04-1.14,0.05-3.36,0.05s-2.49-0.01-3.36-0.05c-0.81-0.04-1.25-0.17-1.55-0.29c-0.39-0.15-0.67-0.33-0.96-0.62
				c-0.29-0.29-0.47-0.57-0.62-0.96c-0.11-0.29-0.25-0.73-0.29-1.55c-0.04-0.88-0.05-1.14-0.05-3.36c0-2.22,0.01-2.49,0.05-3.36
				C5.76,8.32,5.9,7.88,6.01,7.59C6.16,7.2,6.34,6.92,6.63,6.63C6.92,6.34,7.2,6.16,7.59,6.01C7.88,5.9,8.32,5.76,9.14,5.72
				C10.01,5.68,10.28,5.67,12.5,5.67 M12.5,4.17c-2.26,0-2.54,0.01-3.43,0.05C8.18,4.26,7.58,4.41,7.05,4.61
				C6.5,4.82,6.03,5.11,5.57,5.57C5.11,6.03,4.82,6.5,4.61,7.05C4.41,7.58,4.26,8.18,4.22,9.07c-0.04,0.89-0.05,1.17-0.05,3.43
				c0,2.26,0.01,2.54,0.05,3.43c0.04,0.89,0.18,1.49,0.39,2.02c0.21,0.55,0.5,1.01,0.96,1.47c0.46,0.46,0.93,0.75,1.47,0.96
				c0.53,0.21,1.13,0.35,2.02,0.39c0.89,0.04,1.17,0.05,3.43,0.05s2.54-0.01,3.43-0.05c0.89-0.04,1.49-0.18,2.02-0.39
				c0.55-0.21,1.01-0.5,1.47-0.96c0.46-0.46,0.75-0.93,0.96-1.47c0.21-0.53,0.35-1.13,0.39-2.02c0.04-0.89,0.05-1.17,0.05-3.43
				c0-2.26-0.01-2.54-0.05-3.43c-0.04-0.89-0.18-1.49-0.39-2.02c-0.21-0.55-0.5-1.01-0.96-1.47c-0.46-0.46-0.93-0.75-1.47-0.96
				c-0.53-0.21-1.13-0.35-2.02-0.39C15.04,4.18,14.76,4.17,12.5,4.17"/>
			<path class="st2" d="M12.5,8.22c-2.36,0-4.28,1.91-4.28,4.28c0,2.36,1.91,4.28,4.28,4.28s4.28-1.91,4.28-4.28
				C16.78,10.14,14.86,8.22,12.5,8.22 M12.5,15.28c-1.53,0-2.78-1.24-2.78-2.78c0-1.53,1.24-2.78,2.78-2.78s2.78,1.24,2.78,2.78
				C15.28,14.03,14.03,15.28,12.5,15.28"/>
			<path class="st2" d="M17.94,8.06c0,0.55-0.45,1-1,1c-0.55,0-1-0.45-1-1s0.45-1,1-1C17.5,7.06,17.94,7.5,17.94,8.06"/>
		</g>
	</g>
</g>
</svg>
