<?xml version="1.0" encoding="utf-8"?>
<!-- Generator: Adobe Illustrator 23.0.4, SVG Export Plug-In . SVG Version: 6.00 Build 0)  -->
<svg version="1.1" id="Layer_1" xmlns="http://www.w3.org/2000/svg" xmlns:xlink="http://www.w3.org/1999/xlink" x="0px" y="0px"
	 viewBox="0 0 25 25" style="enable-background:new 0 0 25 25;" xml:space="preserve">
<style type="text/css">
	.st0{fill:#00447A;}
</style>
<path class="st0" d="M24.94,11.22c-0.6-5.88-5.27-10.56-11.16-11.16C13.36,0.02,12.93,0,12.5,0s-0.86,0.02-1.28,0.06
	C5.34,0.66,0.66,5.34,0.06,11.22C0.02,11.64,0,12.07,0,12.5s0.02,0.86,0.06,1.28c0.6,5.88,5.27,10.56,11.16,11.16
	C11.64,24.98,12.07,25,12.5,25s0.86-0.02,1.28-0.06c5.88-0.6,10.56-5.27,11.16-11.16C24.98,13.36,25,12.93,25,12.5
	S24.98,11.64,24.94,11.22z M14.8,18.75c-4.7-0.27-8.44-4.11-8.55-8.86c0.03-1.67,1.09-3.08,2.62-3.63c1.14,0.83,1.92,2.13,2.06,3.65
	c-0.54,0.67-1.24,1.2-2.05,1.61c0.93,2.03,2.58,3.67,4.68,4.59c0.34-0.8,0.87-1.5,1.55-2.05l0.02,0c1.48,0.15,2.78,0.93,3.61,2.11
	C18.07,17.67,16.58,18.73,14.8,18.75z"/>
</svg>
