<?xml version="1.0" encoding="utf-8"?>
<!-- Generator: Adobe Illustrator 23.0.4, SVG Export Plug-In . SVG Version: 6.00 Build 0)  -->
<svg version="1.1" id="Layer_1" xmlns="http://www.w3.org/2000/svg" xmlns:xlink="http://www.w3.org/1999/xlink" x="0px" y="0px"
	 viewBox="0 0 25 25" style="enable-background:new 0 0 25 25;" xml:space="preserve">
<style type="text/css">
	.st0{fill:#00447A;}
</style>
<g id="Group">
	<g id="Vector">
		<g transform="translate(5239 2657)">
			<path class="st0" d="M6.67,20.74c-0.2,0.15-0.22,0.42-0.06,0.6c0.16,0.18,0.45,0.21,0.65,0.06L6.67,20.74z"/>
			<path class="st0" d="M18.04,12.5l0.3,0.33c0.11-0.08,0.17-0.2,0.17-0.33c0-0.13-0.06-0.25-0.17-0.33L18.04,12.5z"/>
			<path class="st0" d="M7.26,3.6c-0.2-0.15-0.49-0.13-0.65,0.05c-0.16,0.18-0.14,0.45,0.06,0.6L7.26,3.6z"/>
			<polygon class="st0" points="7.26,21.4 18.33,12.83 17.74,12.17 6.67,20.74 			"/>
			<polygon class="st0" points="18.33,12.17 7.26,3.6 6.67,4.26 17.74,12.83 			"/>
		</g>
	</g>
</g>
</svg>
